# xmcd CD database file
#
# Track frame offsets:
#	150
#	19447
#	42260
#	59215
#	74971
#	89090
#	96550
#	110767
#	135935
#	149902
#	171029
#	184873
#
# Disc length: 2654 seconds
#
# Revision: 0
# Processed by: cddbd v1.5.1PL0 Copyright (c) Steve Scherf et al.
# Submitted via: CDex 1.51
#
DISCID=cb0a5c0c
DTITLE=Lloyd Spiegel - Tall Stories
DYEAR=2003
DGENRE=Blues
TTITLE0=Blues Leave Me Alone
TTITLE1=Dyin Slow
TTITLE2=Loretta
TTITLE3=New York City
TTITLE4=Confession
TTITLE5=Before The Storm
TTITLE6=The Storm
TTITLE7=Road Dirt and Rail
TTITLE8=One Of These Days
TTITLE9=Goin Out West
TTITLE10=Who Do You Love
TTITLE11=Mississippi Sun
EXTD=YEAR: 2003
EXTT0=
EXTT1=
EXTT2=
EXTT3=
EXTT4=
EXTT5=
EXTT6=
EXTT7=
EXTT8=
EXTT9=
EXTT10=
EXTT11=
PLAYORDER=
